<svg width="18" height="22" viewBox="0 0 18 22" fill="none" xmlns="http://www.w3.org/2000/svg">
<path d="M14.9488 11.6998C14.9217 8.92081 17.2233 7.56779 17.3296 7.50525C16.0266 5.60393 14.0065 5.34542 13.2956 5.32457C11.6007 5.14737 9.95578 6.34194 9.09268 6.34194C8.21082 6.34194 6.87865 5.34333 5.44641 5.37252C3.5993 5.40171 1.8731 6.4712 0.926616 8.1286C-1.02473 11.5122 0.430439 16.4823 2.30257 19.2175C3.24072 20.5559 4.33314 22.0528 5.76538 21.9986C7.16635 21.9402 7.68963 21.1063 9.38038 21.1063C11.0565 21.1063 11.5485 21.9986 13.01 21.9653C14.5131 21.9402 15.4596 20.6206 16.3623 19.2676C17.4464 17.7332 17.88 16.2217 17.8967 16.1446C17.8612 16.132 14.978 15.0313 14.9488 11.6998Z" fill="black"/>
<path d="M12.1886 3.52744C12.9412 2.58512 13.4603 1.3009 13.3143 0C12.224 0.0500346 10.8606 0.754689 10.0746 1.67616C9.38038 2.48922 8.75703 3.82139 8.91964 5.07226C10.1455 5.16399 11.4026 4.45517 12.1886 3.52744Z" fill="black"/>
</svg>
