<svg width="191" height="36" viewBox="0 0 191 36" fill="none" xmlns="http://www.w3.org/2000/svg">
<g clip-path="url(#clip0)">
<path d="M51.0956 25.9872V32.828H46.7771V10.5095H51.0956V11.5796C52.2803 10.8153 53.8089 10.2802 55.414 10.2802C60.3057 10.2802 63.8981 14.1783 63.8981 18.8025C63.8981 23.3885 60.344 27.3248 55.414 27.3248C53.7707 27.2866 52.2803 26.7898 51.0956 25.9872ZM51.0956 16.7388V20.6751C51.8217 22.2038 53.3121 23.1974 55.0701 23.1974C57.5924 23.1974 59.5796 21.2484 59.5796 18.7643C59.5796 16.242 57.6306 14.3312 55.1083 14.3312C53.3503 14.3694 51.8599 15.2866 51.0956 16.7388Z" fill="white"/>
<path d="M66.1912 5.99998C66.1912 4.58596 67.223 3.5159 68.5988 3.5159C69.9746 3.5159 71.1211 4.58596 71.1211 5.99998C71.1211 7.37577 69.9746 8.48405 68.5988 8.48405C67.223 8.48405 66.1912 7.37577 66.1912 5.99998ZM66.4587 10.5095H70.8154V27.0573H66.4587V10.5095Z" fill="white"/>
<path d="M73.4141 18.7261C73.4141 14.1783 76.9682 10.3184 81.8981 10.3184C83.5032 10.3184 84.9937 10.7388 86.2548 11.4267V10.5095H90.5351V26.1019C90.5351 30.4203 86.8281 32.7515 82.1657 32.7515C79.1083 32.7515 76.2039 31.8343 74.293 30.3439L76.0892 27.2866C77.6561 28.3566 79.8344 29.0445 82.1657 29.0445C85.1848 29.0445 86.102 27.8598 86.2548 25.9108C84.9555 26.7133 83.465 27.2101 81.9364 27.2101C76.93 27.1719 73.4141 23.5031 73.4141 18.7261ZM86.2548 20.5605V16.8535C85.5287 15.2866 83.9618 14.2547 82.2039 14.2547C79.6816 14.2547 77.6943 16.242 77.6943 18.6878C77.6943 21.2484 79.6434 23.0063 82.1657 23.0063C84.0383 23.0828 85.4905 22.1273 86.2548 20.5605Z" fill="white"/>
<path d="M93.1338 18.7261C93.1338 14.1783 96.6879 10.3184 101.618 10.3184C103.223 10.3184 104.713 10.7388 105.975 11.4267V10.5095H110.255V26.1019C110.255 30.4203 106.548 32.7515 101.885 32.7515C98.8281 32.7515 95.9236 31.8343 94.0128 30.3439L95.8089 27.2866C97.3758 28.3566 99.5542 29.0445 101.885 29.0445C104.904 29.0445 105.822 27.8598 105.975 25.9108C104.675 26.7133 103.185 27.2101 101.656 27.2101C96.6497 27.1719 93.1338 23.5031 93.1338 18.7261ZM105.975 20.5605V16.8535C105.248 15.2866 103.682 14.2547 101.924 14.2547C99.4013 14.2547 97.414 16.242 97.414 18.6878C97.414 21.2484 99.3631 23.0063 101.885 23.0063C103.72 23.0828 105.172 22.1273 105.975 20.5605Z" fill="white"/>
<path d="M116.522 10.5096L120.841 21.5541L125.312 10.5096H129.86L120.344 32.828H116.293L118.701 26.8662L111.745 10.5096H116.522Z" fill="white"/>
<path d="M129.019 10.5096H133.643L137.847 21.6688L142.013 10.5096H146.561L139.911 27.0573H135.592L129.019 10.5096Z" fill="white"/>
<path d="M146.866 18.6497C146.866 13.9873 150.191 10.1274 155.389 10.1274C160.204 10.1274 163.873 13.758 163.949 18.4968C163.987 18.879 163.987 19.2994 163.949 19.7198H150.955C151.07 22.051 153.325 23.5796 155.694 23.5796C157.681 23.5796 158.828 23.0446 160.204 21.8981L162.573 24.3822C160.662 26.3694 158.752 27.3249 155.732 27.3249C150.115 27.3631 146.866 23.1975 146.866 18.6497ZM151.185 16.7007H159.516C159.095 15.1338 157.605 13.7962 155.35 13.7962C152.752 13.7962 151.643 15.0956 151.185 16.7007Z" fill="white"/>
<path d="M164.904 25.2612L167.006 21.8217C168.879 23.0446 171.134 23.8089 173.427 23.8089C175.605 23.8089 176.713 23.2739 176.713 22.3185C176.713 21.707 176.178 21.2484 175.108 21.0191L170.56 20.0637C167.236 19.3376 165.707 17.7707 165.707 15.172C165.707 12.4204 168.038 10.1274 172.853 10.1274C175.758 10.1274 178.357 10.9682 180.115 12.0765L178.127 15.3631C176.675 14.5987 174.726 13.758 172.701 13.758C170.866 13.758 169.796 14.2166 169.796 15.0573C169.796 15.5924 170.178 15.9745 171.248 16.1656L175.07 16.8917C179.197 17.6943 180.803 19.5287 180.803 22.051C180.803 25.6433 177.21 27.5159 173.312 27.5159C170.14 27.4777 167.618 26.828 164.904 25.2612Z" fill="white"/>
<path d="M181.643 10.5095H184.089V5.96177L188.408 3.17197V10.5095H190.93V14.2548H188.408V27.0191H184.089V14.2548H181.643V10.5095Z" fill="white"/>
<path d="M36.0382 16.6242C35.9618 15.5541 35.8089 14.5223 35.5414 13.4904C34.3185 8.94267 31.7197 5.38853 27.7834 2.82803C25.2229 1.18471 22.4331 0.305732 19.414 0.0382166C18.1529 -0.0382166 16.9299 0 15.6688 0.152866C14.3694 0.343949 13.0701 0.649681 11.8471 1.07006C6.42038 3.05732 2.21656 7.56688 0.649681 13.1465C0.305732 14.3694 0.11465 15.5924 0.0382166 16.8153C0 17.5032 0 18.1529 0 18.7643V34.4331C0 35.2739 0.687898 35.9618 1.52866 35.9618H7.60509C8.40764 35.9618 9.05732 35.3503 9.13376 34.586C9.17197 34.4331 9.21019 34.2803 9.21019 34.1274V33.7834C9.21019 33.7452 9.21019 33.7452 9.21019 33.707V33.6688C9.24841 33.6688 9.28662 33.707 9.32484 33.707C11.6178 34.9682 14.0637 35.6943 16.7006 35.8853C17.7325 35.9618 18.7643 35.9618 19.7962 35.8471C20.7134 35.7707 21.6306 35.6178 22.5478 35.3885C26.4841 34.3567 29.7325 32.2548 32.2548 29.0446C34.4331 26.293 35.656 23.1592 36.0382 19.6815C36.1146 18.6879 36.1146 17.656 36.0382 16.6242ZM21.2484 26.6369C21.2102 26.7516 21.1338 26.828 21.0191 26.828H15.0573C14.9427 26.828 14.8662 26.7516 14.828 26.6369V26.5987V26.3694C14.828 26.1019 14.8662 25.8344 14.9045 25.5669C14.9427 25.4904 14.9809 25.3758 15.0191 25.2611C15.0573 25.1465 15.0955 25.0701 15.1338 24.9554C15.172 24.879 15.2484 24.7643 15.2866 24.6879C15.3248 24.6497 15.3248 24.6115 15.3631 24.5732C15.4013 24.4968 15.4777 24.4204 15.5541 24.3439C15.6306 24.2675 15.707 24.1911 15.7452 24.1146C16.0892 23.7707 16.5478 23.5032 17.0064 23.3503C16.3567 23.0064 15.8981 22.2803 15.8981 21.4777C15.8981 20.293 16.8535 19.3758 18 19.3758C18.5732 19.3758 19.1083 19.6051 19.4904 19.9873C19.8726 20.3694 20.1019 20.9045 20.1019 21.4777C20.1019 22.2803 19.6433 22.9682 18.9936 23.3503C20.293 23.7707 21.2102 24.9936 21.2102 26.4076C21.2866 26.4459 21.2484 26.5605 21.2484 26.6369ZM31.5669 13.6051H4.50955C4.28025 13.6051 4.12739 13.3758 4.20382 13.1847C6.2293 7.49045 11.656 3.40127 18.0382 3.40127C24.4204 3.40127 29.8471 7.49045 31.8726 13.1847C31.9108 13.3758 31.758 13.6051 31.5669 13.6051Z" fill="white"/>
</g>
<defs>
<clipPath id="clip0">
<rect width="190.93" height="36" fill="white"/>
</clipPath>
</defs>
</svg>
